<svg xmlns="http://www.w3.org/2000/svg" width="46" height="53" viewBox="0 0 46 53"><g><g><path fill="#3aa0ef" d="M34.284 2.954c11.203 6.085 15.041 19.562 8.573 30.102-2.272 3.703-8.175 7.4-15.055 10.27-10.089 3.269-27.92 9.466-27.92 9.466V23.87s.553-9.832 2.406-12.85C8.756.48 23.08-3.131 34.284 2.954zM11.403 20.196c0 5.996 5.166 10.857 11.54 10.857 6.372 0 11.539-4.861 11.539-10.857 0-5.996-5.167-10.856-11.54-10.856-6.373 0-11.54 4.86-11.54 10.856z"/><path fill="#9f9acf" d="M34.284 2.954c11.203 6.085 15.041 19.562 8.573 30.102-2.272 3.703-8.175 7.4-15.055 10.27-10.089 3.269-27.92 9.466-27.92 9.466V23.87s.553-9.832 2.406-12.85C8.756.48 23.08-3.131 34.284 2.954zM11.403 20.196c0 5.996 5.166 10.857 11.54 10.857 6.372 0 11.539-4.861 11.539-10.857 0-5.996-5.167-10.856-11.54-10.856-6.373 0-11.54 4.86-11.54 10.856z"/></g></g></svg>